<svg
  id="visual"
  viewBox="0 0 3840 2160"
  width="3840"
  height="2160"
  xmlns="http://www.w3.org/2000/svg"
  xmlns:xlink="http://www.w3.org/1999/xlink"
  version="1.1"
><path
    d="M1279 0L1214.8 51.5C1150.7 103 1022.3 206 991.8 308.8C961.3 411.7 1028.7 514.3 973.8 617.2C919 720 742 823 741.5 925.8C741 1028.7 917 1131.3 932 1234.2C947 1337 801 1440 709.7 1542.8C618.3 1645.7 581.7 1748.3 670.3 1851.2C759 1954 973 2057 1080 2108.5L1187 2160L0 2160L0 2108.5C0 2057 0 1954 0 1851.2C0 1748.3 0 1645.7 0 1542.8C0 1440 0 1337 0 1234.2C0 1131.3 0 1028.7 0 925.8C0 823 0 720 0 617.2C0 514.3 0 411.7 0 308.8C0 206 0 103 0 51.5L0 0Z"
    fill="#128cde"
    stroke-linecap="round"
    stroke-linejoin="miter"
  /></svg>
